<svg width="64" height="64" viewBox="0 0 64 64" fill="none" xmlns="http://www.w3.org/2000/svg">
  <circle cx="26" cy="18" r="8" fill="#F6D6C9"/>
  <path d="M16 16C16 10.4772 20.4772 6 26 6C31.5228 6 36 10.4772 36 16V20H16V16Z" fill="#2A2A2A"/>
  <path d="M10 50C10 39.5066 18.5066 31 29 31H23C33.4934 31 42 39.5066 42 50V58H10V50Z" fill="#EAF9FB" stroke="#138A9C" stroke-width="2"/>
  <path d="M44 28L54 32V39C54 45 49.9 50.2 44 52C38.1 50.2 34 45 34 39V32L44 28Z" fill="#BFEFF5" stroke="#138A9C" stroke-width="2"/>
  <path d="M40 39L43 42L48 36" stroke="#138A9C" stroke-width="2" stroke-linecap="round" stroke-linejoin="round"/>
</svg>
